<svg width="62" height="62" viewBox="0 0 62 62" fill="none" xmlns="http://www.w3.org/2000/svg">
<rect width="62" height="62" rx="8" fill="#F5F6F7"/>
<path d="M35.5425 13.7535L39.073 20.6988L46.6563 21.7667C50.8415 22.3591 52.486 27.5193 49.4153 30.419L44.0298 35.5091L45.3314 42.8909C46.0562 46.991 41.7852 50.1479 38.0754 48.2616L31.0377 44.6759L24 48.2616C20.2902 50.1557 16.0192 46.991 16.7441 42.8909L18.0456 35.5091L12.6602 30.419C9.58944 27.5193 11.2417 22.3513 15.4191 21.7667L23.0024 20.6988L26.533 13.7535C28.4268 10.0822 33.6798 10.0822 35.5425 13.7535Z" fill="url(#paint0_linear_9182_34328)"/>
<path d="M40.7478 19.7155C40.9037 20.5106 40.2022 21.2121 39.4073 21.0484C38.6825 20.9003 37.794 20.8302 36.8821 21.0094C35.9702 21.1887 35.1753 21.5941 34.5596 22.0072C33.8893 22.4593 32.9697 22.0773 32.8138 21.2823C32.7437 20.9159 32.8528 20.5417 33.11 20.2767C33.6165 19.7545 34.6531 18.9438 36.4067 18.6008C38.1603 18.2578 39.4229 18.6086 40.0931 18.897C40.4282 19.0451 40.6776 19.3491 40.7478 19.7155Z" fill="url(#paint1_linear_9182_34328)"/>
<path d="M21.3109 19.7155C21.1551 20.5106 21.8565 21.2121 22.6514 21.0484C23.3763 20.9003 24.2647 20.8302 25.1766 21.0094C26.0885 21.1887 26.8834 21.5941 27.4991 22.0072C28.1694 22.4593 29.089 22.0773 29.2449 21.2823C29.3151 20.9159 29.206 20.5417 28.9488 20.2767C28.4422 19.7545 27.4056 18.9438 25.652 18.6008C23.8984 18.2578 22.6359 18.6086 21.9656 18.897C21.6305 19.0451 21.3889 19.3491 21.3109 19.7155Z" fill="url(#paint2_linear_9182_34328)"/>
<path d="M31.0608 42.8827H31.0326C27.1762 42.8827 24.0459 40.9718 24.0459 37.3299C24.0459 36.5376 24.7227 35.8984 25.5617 35.8984H36.4964C37.3354 35.8984 38.0122 36.5376 38.0122 37.3299V37.3565C38.0193 40.9851 34.9031 42.8827 31.0608 42.8827Z" fill="url(#paint3_radial_9182_34328)"/>
<path d="M36.8006 40.732C35.5457 42.1569 33.4448 42.8826 31.0618 42.8826H31.0336C28.6366 42.8826 26.5286 42.1435 25.2666 40.7121C25.3442 39.6335 26.2889 38.7812 27.4521 38.7812H34.6151C35.7783 38.7812 36.7372 39.6468 36.8006 40.732Z" fill="url(#paint4_linear_9182_34328)"/>
<path d="M36.8069 35.9251V36.7174C36.8069 37.8625 35.8269 38.788 34.6143 38.788H27.4514C26.2388 38.788 25.2588 37.8625 25.2588 36.7174V35.9251C25.3575 35.9051 25.4632 35.8984 25.5619 35.8984H36.4967C36.6024 35.8984 36.7082 35.9051 36.8069 35.9251Z" fill="url(#paint5_linear_9182_34328)"/>
<path d="M46.2265 25.1243V26.4339C46.2265 26.6989 46.1096 26.9406 45.9226 27.1276C45.6654 27.3693 45.3225 27.8058 45.2445 28.4372C45.1354 29.3726 44.208 34.5172 39.3447 34.5172C34.4814 34.5172 32.9772 30.7445 32.7746 29.5207C32.5642 28.2111 31.8705 28.0474 31.0288 28.0474C30.1871 28.0474 29.4934 28.2033 29.283 29.5207C29.0882 30.7445 27.7554 34.5172 22.7207 34.5172C17.686 34.5172 16.93 29.3726 16.8209 28.4372C16.7429 27.8058 16.4078 27.3693 16.1428 27.1276C15.948 26.9483 15.8389 26.6989 15.8389 26.4339V25.1243C15.8389 24.7346 16.0805 24.3994 16.439 24.2513C25.4563 20.6111 29.1193 25.2413 29.1193 25.2413C29.5558 24.9295 31.0366 24.9139 31.0366 24.9139C31.0366 24.9139 32.5096 24.9295 32.9538 25.2413C32.9538 25.2413 36.6169 20.6111 45.6342 24.2513C45.9849 24.3994 46.2265 24.7346 46.2265 25.1243Z" fill="url(#paint6_linear_9182_34328)"/>
<g style="mix-blend-mode:saturation">
<rect x="11" y="11.0898" width="39.9038" height="39.9099" fill="white"/>
</g>
<defs>
<linearGradient id="paint0_linear_9182_34328" x1="17.1749" y1="18.5927" x2="44.9358" y2="46.3494" gradientUnits="userSpaceOnUse">
<stop offset="0.1" stop-color="#FFF1AB"/>
<stop offset="0.4" stop-color="#FFDA24"/>
<stop offset="0.51" stop-color="#FFC81D"/>
<stop offset="0.74" stop-color="#FF9A0C"/>
<stop offset="0.9" stop-color="#FF7700"/>
</linearGradient>
<linearGradient id="paint1_linear_9182_34328" x1="36.7775" y1="22.1976" x2="36.7775" y2="18.4508" gradientUnits="userSpaceOnUse">
<stop stop-color="#3B2828"/>
<stop offset="1" stop-color="#705454"/>
</linearGradient>
<linearGradient id="paint2_linear_9182_34328" x1="25.2812" y1="22.1976" x2="25.2812" y2="18.4508" gradientUnits="userSpaceOnUse">
<stop stop-color="#3B2828"/>
<stop offset="1" stop-color="#705454"/>
</linearGradient>
<radialGradient id="paint3_radial_9182_34328" cx="0" cy="0" r="1" gradientUnits="userSpaceOnUse" gradientTransform="translate(31.0329 39.3892) scale(5.58942 5.27852)">
<stop stop-color="#614444"/>
<stop offset="0.38" stop-color="#583C3C"/>
<stop offset="1" stop-color="#402828"/>
</radialGradient>
<linearGradient id="paint4_linear_9182_34328" x1="31.034" y1="42.8846" x2="31.034" y2="38.7832" gradientUnits="userSpaceOnUse">
<stop stop-color="#CCCCCC"/>
<stop offset="0.03" stop-color="#D0D0D0"/>
<stop offset="0.23" stop-color="#E9E9E9"/>
<stop offset="0.35" stop-color="#F2F2F2"/>
</linearGradient>
<linearGradient id="paint5_linear_9182_34328" x1="31.0336" y1="38.7833" x2="31.0336" y2="35.8951" gradientUnits="userSpaceOnUse">
<stop offset="0.65" stop-color="white"/>
<stop offset="0.75" stop-color="#F6F6F6"/>
<stop offset="0.9" stop-color="#DDDDDD"/>
<stop offset="1" stop-color="#CCCCCC"/>
</linearGradient>
<linearGradient id="paint6_linear_9182_34328" x1="31.0288" y1="34.5149" x2="31.0288" y2="22.8557" gradientUnits="userSpaceOnUse">
<stop stop-color="#3B2828"/>
<stop offset="1" stop-color="#705454"/>
</linearGradient>
</defs>
</svg>
