<svg width="62" height="62" viewBox="0 0 62 62" fill="none" xmlns="http://www.w3.org/2000/svg">
<rect width="62" height="62" rx="8" fill="#F5F6F7"/>
<path d="M35.5201 13.7535L39.0557 20.6988L46.6499 21.7667C50.8411 22.3591 52.488 27.5193 49.4128 30.419L44.0196 35.5091L45.3231 42.8909C46.0489 46.991 41.7718 50.1479 38.0567 48.2616L31.0088 44.6759L23.961 48.2616C20.2458 50.1557 15.9687 46.991 16.6946 42.8909L17.998 35.5091L12.6048 30.419C9.52968 27.5193 11.1843 22.3513 15.3678 21.7667L22.962 20.6988L26.4976 13.7535C28.3942 10.0822 33.6547 10.0822 35.5201 13.7535Z" fill="url(#paint0_linear_9182_34325)"/>
<path d="M34.2472 21.4389C34.536 20.6204 35.5663 20.3554 36.2141 20.94C36.7995 21.47 37.5799 22.0235 38.5243 22.3509C39.4687 22.6861 40.4209 22.7406 41.2092 22.6938C42.0756 22.6471 42.7156 23.4967 42.4268 24.3152C42.2941 24.6893 41.9897 24.9778 41.6073 25.0869C40.8502 25.2895 39.4609 25.4766 37.6502 24.8374C35.8395 24.1983 34.8716 23.1849 34.4111 22.5535C34.1692 22.2339 34.1146 21.813 34.2472 21.4389Z" fill="url(#paint1_linear_9182_34325)"/>
<path d="M27.8006 21.4389C27.5118 20.6204 26.4816 20.3554 25.8337 20.94C25.2484 21.47 24.4679 22.0235 23.5235 22.3509C22.5791 22.6861 21.6269 22.7406 20.8386 22.6938C19.9722 22.6471 19.3322 23.4967 19.621 24.3152C19.7537 24.6893 20.0581 24.9778 20.4405 25.0869C21.1976 25.2895 22.5869 25.4766 24.3976 24.8374C26.2084 24.1983 27.1762 23.1849 27.6367 22.5535C27.8708 22.2339 27.9333 21.813 27.8006 21.4389Z" fill="url(#paint2_linear_9182_34325)"/>
<path d="M26.1767 39.9667C26.2158 39.3743 27.6519 37.332 31.0236 37.332C34.3953 37.332 35.8236 39.3743 35.8705 39.9667C35.9095 40.4968 35.5426 40.7228 35.0978 40.6293C34.6529 40.5357 33.5524 39.5068 31.0236 39.5068C28.4948 39.5068 27.4021 40.5357 26.9494 40.6293C26.4967 40.7228 26.1377 40.4968 26.1767 39.9667Z" fill="url(#paint3_radial_9182_34325)"/>
<path d="M37.3854 35.0254C39.7778 35.0254 41.7172 33.0885 41.7172 30.6992C41.7172 28.3099 39.7778 26.373 37.3854 26.373C34.9931 26.373 33.0537 28.3099 33.0537 30.6992C33.0537 33.0885 34.9931 35.0254 37.3854 35.0254Z" fill="url(#paint4_radial_9182_34325)"/>
<path d="M37.3859 33.5049C38.9377 33.5049 40.1957 32.2485 40.1957 30.6987C40.1957 29.1489 38.9377 27.8926 37.3859 27.8926C35.8341 27.8926 34.5762 29.1489 34.5762 30.6987C34.5762 32.2485 35.8341 33.5049 37.3859 33.5049Z" fill="url(#paint5_radial_9182_34325)"/>
<path d="M38.7515 30.7923C39.5533 30.7923 40.2032 30.1432 40.2032 29.3424C40.2032 28.5417 39.5533 27.8926 38.7515 27.8926C37.9498 27.8926 37.2998 28.5417 37.2998 29.3424C37.2998 30.1432 37.9498 30.7923 38.7515 30.7923Z" fill="white"/>
<path d="M24.6628 35.0254C27.0551 35.0254 28.9945 33.0885 28.9945 30.6992C28.9945 28.3099 27.0551 26.373 24.6628 26.373C22.2704 26.373 20.3311 28.3099 20.3311 30.6992C20.3311 33.0885 22.2704 35.0254 24.6628 35.0254Z" fill="url(#paint6_radial_9182_34325)"/>
<path d="M24.6633 33.5049C26.2151 33.5049 27.4731 32.2485 27.4731 30.6987C27.4731 29.1489 26.2151 27.8926 24.6633 27.8926C23.1115 27.8926 21.8535 29.1489 21.8535 30.6987C21.8535 32.2485 23.1115 33.5049 24.6633 33.5049Z" fill="url(#paint7_radial_9182_34325)"/>
<path d="M26.0211 30.7923C26.8228 30.7923 27.4728 30.1432 27.4728 29.3424C27.4728 28.5417 26.8228 27.8926 26.0211 27.8926C25.2193 27.8926 24.5693 28.5417 24.5693 29.3424C24.5693 30.1432 25.2193 30.7923 26.0211 30.7923Z" fill="white"/>
<g style="mix-blend-mode:saturation">
<rect x="11" y="11.0898" width="39.9612" height="39.9099" fill="white"/>
</g>
<defs>
<linearGradient id="paint0_linear_9182_34325" x1="17.1261" y1="18.5927" x2="44.8869" y2="46.3893" gradientUnits="userSpaceOnUse">
<stop offset="0.1" stop-color="#FFC05C"/>
<stop offset="0.4" stop-color="#FFC05C"/>
<stop offset="0.51" stop-color="#FFB454"/>
<stop offset="0.74" stop-color="#FF7324"/>
<stop offset="0.9" stop-color="#FF6F21"/>
</linearGradient>
<linearGradient id="paint1_linear_9182_34325" x1="38.3345" y1="25.2779" x2="38.3345" y2="20.6269" gradientUnits="userSpaceOnUse">
<stop stop-color="#3B2828"/>
<stop offset="1" stop-color="#705454"/>
</linearGradient>
<linearGradient id="paint2_linear_9182_34325" x1="23.7087" y1="25.2779" x2="23.7087" y2="20.6269" gradientUnits="userSpaceOnUse">
<stop stop-color="#3B2828"/>
<stop offset="1" stop-color="#705454"/>
</linearGradient>
<radialGradient id="paint3_radial_9182_34325" cx="0" cy="0" r="1" gradientUnits="userSpaceOnUse" gradientTransform="translate(31.0212 38.9925) scale(3.62328 3.61862)">
<stop stop-color="#614444"/>
<stop offset="0.38" stop-color="#583C3C"/>
<stop offset="1" stop-color="#402828"/>
</radialGradient>
<radialGradient id="paint4_radial_9182_34325" cx="0" cy="0" r="1" gradientUnits="userSpaceOnUse" gradientTransform="translate(37.3878 30.7016) scale(4.32939 4.32383)">
<stop offset="0.75" stop-color="white"/>
<stop offset="0.82" stop-color="#FAFAFA"/>
<stop offset="0.89" stop-color="#EEEEEE"/>
<stop offset="0.96" stop-color="#D9D9D9"/>
<stop offset="1" stop-color="#CCCCCC"/>
</radialGradient>
<radialGradient id="paint5_radial_9182_34325" cx="0" cy="0" r="1" gradientUnits="userSpaceOnUse" gradientTransform="translate(37.3883 30.7011) scale(2.81211 2.8085)">
<stop stop-color="#705454"/>
<stop offset="0.27" stop-color="#674C4C"/>
<stop offset="0.71" stop-color="#4E3838"/>
<stop offset="1" stop-color="#3B2828"/>
</radialGradient>
<radialGradient id="paint6_radial_9182_34325" cx="0" cy="0" r="1" gradientUnits="userSpaceOnUse" gradientTransform="translate(24.6604 30.7016) scale(4.32939 4.32383)">
<stop offset="0.75" stop-color="white"/>
<stop offset="0.82" stop-color="#FAFAFA"/>
<stop offset="0.89" stop-color="#EEEEEE"/>
<stop offset="0.96" stop-color="#D9D9D9"/>
<stop offset="1" stop-color="#CCCCCC"/>
</radialGradient>
<radialGradient id="paint7_radial_9182_34325" cx="0" cy="0" r="1" gradientUnits="userSpaceOnUse" gradientTransform="translate(24.6609 30.7011) scale(2.81211 2.8085)">
<stop stop-color="#705454"/>
<stop offset="0.27" stop-color="#674C4C"/>
<stop offset="0.71" stop-color="#4E3838"/>
<stop offset="1" stop-color="#3B2828"/>
</radialGradient>
</defs>
</svg>
