<svg width="62" height="62" viewBox="0 0 62 62" fill="none" xmlns="http://www.w3.org/2000/svg">
<rect width="62.0005" height="62" rx="8" fill="#FDF7EA"/>
<path d="M35.528 13.766L39.0619 20.7427L46.6525 21.8154C50.8417 22.4105 52.4878 27.594 49.4141 30.5068L44.0235 35.6199L45.3263 43.0351C46.0518 47.1537 41.7767 50.3249 38.0633 48.43L31.0189 44.8282L23.9744 48.43C20.261 50.3328 15.9859 47.1537 16.7114 43.0351L18.0142 35.6199L12.6236 30.5068C9.54992 27.594 11.2038 22.4026 15.3852 21.8154L22.9758 20.7427L26.5098 13.766C28.4054 10.078 33.6635 10.078 35.528 13.766Z" fill="url(#paint0_linear_18374_44314)"/>
<path d="M37.1591 34.3761C39.4426 34.3761 41.2937 32.5181 41.2937 30.2261C41.2937 27.9342 39.4426 26.0762 37.1591 26.0762C34.8756 26.0762 33.0244 27.9342 33.0244 30.2261C33.0244 32.5181 34.8756 34.3761 37.1591 34.3761Z" fill="url(#paint1_radial_18374_44314)"/>
<path d="M37.1592 32.9282C38.6456 32.9282 39.8506 31.7187 39.8506 30.2268C39.8506 28.7348 38.6456 27.5254 37.1592 27.5254C35.6728 27.5254 34.4678 28.7348 34.4678 30.2268C34.4678 31.7187 35.6728 32.9282 37.1592 32.9282Z" fill="url(#paint2_radial_18374_44314)"/>
<path d="M38.454 30.3129C39.221 30.3129 39.8427 29.6889 39.8427 28.9192C39.8427 28.1494 39.221 27.5254 38.454 27.5254C37.6871 27.5254 37.0654 28.1494 37.0654 28.9192C37.0654 29.6889 37.6871 30.3129 38.454 30.3129Z" fill="white"/>
<path d="M24.9979 34.3761C27.2814 34.3761 29.1326 32.5181 29.1326 30.2261C29.1326 27.9342 27.2814 26.0762 24.9979 26.0762C22.7144 26.0762 20.8633 27.9342 20.8633 30.2261C20.8633 32.5181 22.7144 34.3761 24.9979 34.3761Z" fill="url(#paint3_radial_18374_44314)"/>
<path d="M24.9981 32.9282C26.4845 32.9282 27.6895 31.7187 27.6895 30.2268C27.6895 28.7348 26.4845 27.5254 24.9981 27.5254C23.5116 27.5254 22.3066 28.7348 22.3066 30.2268C22.3066 31.7187 23.5116 32.9282 24.9981 32.9282Z" fill="url(#paint4_radial_18374_44314)"/>
<path d="M26.2929 30.3129C27.0598 30.3129 27.6815 29.6889 27.6815 28.9192C27.6815 28.1494 27.0598 27.5254 26.2929 27.5254C25.526 27.5254 24.9043 28.1494 24.9043 28.9192C24.9043 29.6889 25.526 30.3129 26.2929 30.3129Z" fill="white"/>
<path d="M27.5793 38.7363H35.0217C35.677 38.7363 36.2075 39.2688 36.2075 39.9265C36.2075 40.5842 35.677 41.1167 35.0217 41.1167H27.5793C26.924 41.1167 26.3936 40.5842 26.3936 39.9265C26.3936 39.2688 26.924 38.7363 27.5793 38.7363Z" fill="url(#paint5_radial_18374_44314)"/>
<path d="M21.0186 23.9925C21.0186 24.7755 21.8143 25.308 22.532 25.0104C23.1873 24.7364 24.0142 24.5015 24.9114 24.5015C25.8085 24.5015 26.6354 24.7364 27.2907 25.0104C28.0084 25.3158 28.8042 24.7755 28.8042 23.9925C28.8042 23.6323 28.6325 23.2956 28.3361 23.092C27.7588 22.6927 26.6354 22.1211 24.9114 22.1211C23.1873 22.1211 22.0639 22.6927 21.4866 23.092C21.1902 23.2956 21.0186 23.6323 21.0186 23.9925Z" fill="url(#paint6_linear_18374_44314)"/>
<path d="M41.06 23.9925C41.06 24.7755 40.2643 25.308 39.5466 25.0104C38.8913 24.7364 38.0644 24.5015 37.1672 24.5015C36.2701 24.5015 35.4432 24.7364 34.7878 25.0104C34.0701 25.3158 33.2744 24.7755 33.2744 23.9925C33.2744 23.6323 33.446 23.2956 33.7425 23.092C34.3198 22.6927 35.4432 22.1211 37.1672 22.1211C38.8913 22.1211 40.0147 22.6927 40.592 23.092C40.8884 23.2956 41.06 23.6323 41.06 23.9925Z" fill="url(#paint7_linear_18374_44314)"/>
<g style="mix-blend-mode:saturation">
<rect x="11" y="11" width="40" height="40" fill="white" fill-opacity="0.01"/>
</g>
<defs>
<linearGradient id="paint0_linear_18374_44314" x1="17.1427" y1="18.627" x2="45.0289" y2="46.4102" gradientUnits="userSpaceOnUse">
<stop offset="0.1" stop-color="#FFD591"/>
<stop offset="0.4" stop-color="#FFC05C"/>
<stop offset="0.51" stop-color="#FFC05C"/>
<stop offset="0.74" stop-color="#FFC05C"/>
<stop offset="0.9" stop-color="#FF9E44"/>
</linearGradient>
<radialGradient id="paint1_radial_18374_44314" cx="0" cy="0" r="1" gradientUnits="userSpaceOnUse" gradientTransform="translate(37.1552 30.2285) scale(4.13698 4.15232)">
<stop offset="0.75" stop-color="white"/>
<stop offset="0.82" stop-color="#FAFAFA"/>
<stop offset="0.89" stop-color="#EEEEEE"/>
<stop offset="0.96" stop-color="#D9D9D9"/>
<stop offset="1" stop-color="#CCCCCC"/>
</radialGradient>
<radialGradient id="paint2_radial_18374_44314" cx="0" cy="0" r="1" gradientUnits="userSpaceOnUse" gradientTransform="translate(37.1553 30.2291) scale(2.68752 2.69748)">
<stop stop-color="#705454"/>
<stop offset="0.27" stop-color="#674C4C"/>
<stop offset="0.71" stop-color="#4E3838"/>
<stop offset="1" stop-color="#3B2828"/>
</radialGradient>
<radialGradient id="paint3_radial_18374_44314" cx="0" cy="0" r="1" gradientUnits="userSpaceOnUse" gradientTransform="translate(24.994 30.2285) scale(4.13698 4.15232)">
<stop offset="0.75" stop-color="white"/>
<stop offset="0.82" stop-color="#FAFAFA"/>
<stop offset="0.89" stop-color="#EEEEEE"/>
<stop offset="0.96" stop-color="#D9D9D9"/>
<stop offset="1" stop-color="#CCCCCC"/>
</radialGradient>
<radialGradient id="paint4_radial_18374_44314" cx="0" cy="0" r="1" gradientUnits="userSpaceOnUse" gradientTransform="translate(24.9942 30.2291) scale(2.68752 2.69748)">
<stop stop-color="#705454"/>
<stop offset="0.27" stop-color="#674C4C"/>
<stop offset="0.71" stop-color="#4E3838"/>
<stop offset="1" stop-color="#3B2828"/>
</radialGradient>
<radialGradient id="paint5_radial_18374_44314" cx="0" cy="0" r="1" gradientUnits="userSpaceOnUse" gradientTransform="translate(31.3032 39.9257) scale(3.56913 3.58237)">
<stop stop-color="#614444"/>
<stop offset="0.38" stop-color="#583C3C"/>
<stop offset="1" stop-color="#402828"/>
</radialGradient>
<linearGradient id="paint6_linear_18374_44314" x1="24.9106" y1="25.0936" x2="24.9106" y2="22.1211" gradientUnits="userSpaceOnUse">
<stop stop-color="#3B2828"/>
<stop offset="1" stop-color="#705454"/>
</linearGradient>
<linearGradient id="paint7_linear_18374_44314" x1="37.1703" y1="25.0936" x2="37.1703" y2="22.1211" gradientUnits="userSpaceOnUse">
<stop stop-color="#3B2828"/>
<stop offset="1" stop-color="#705454"/>
</linearGradient>
</defs>
</svg>
