<svg width="62" height="62" viewBox="0 0 62 62" fill="none" xmlns="http://www.w3.org/2000/svg">
<rect width="62" height="62" rx="8" fill="#00B67A" fill-opacity="0.1"/>
<path d="M35.5425 13.766L39.073 20.7427L46.6563 21.8154C50.8415 22.4105 52.486 27.594 49.4153 30.5068L44.0298 35.6199L45.3314 43.0351C46.0562 47.1537 41.7852 50.3249 38.0754 48.43L31.0377 44.8282L24 48.43C20.2902 50.3328 16.0192 47.1537 16.7441 43.0351L18.0456 35.6199L12.6602 30.5068C9.58944 27.594 11.2417 22.4026 15.4191 21.8154L23.0024 20.7427L26.533 13.766C28.4268 10.078 33.6798 10.078 35.5425 13.766Z" fill="url(#paint0_linear_18374_44316)"/>
<path d="M40.7478 19.7563C40.9037 20.555 40.2022 21.2597 39.4073 21.0953C38.6825 20.9465 37.794 20.876 36.8821 21.0561C35.9702 21.2362 35.1753 21.6434 34.5596 22.0584C33.8893 22.5125 32.9697 22.1289 32.8138 21.3302C32.7437 20.9622 32.8528 20.5863 33.11 20.3201C33.6165 19.7955 34.6531 18.9811 36.4067 18.6366C38.1603 18.2921 39.4229 18.6444 40.0931 18.9342C40.4282 19.0829 40.6776 19.3883 40.7478 19.7563Z" fill="url(#paint1_linear_18374_44316)"/>
<path d="M21.31 19.7563C21.1541 20.555 21.8555 21.2597 22.6505 21.0953C23.3753 20.9465 24.2638 20.876 25.1756 21.0561C26.0875 21.2362 26.8825 21.6434 27.4982 22.0584C28.1684 22.5125 29.0881 22.1289 29.2439 21.3302C29.3141 20.9622 29.205 20.5863 28.9478 20.3201C28.4412 19.7955 27.4046 18.9811 25.651 18.6366C23.8975 18.2921 22.6349 18.6444 21.9646 18.9342C21.6295 19.0829 21.3879 19.3883 21.31 19.7563Z" fill="url(#paint2_linear_18374_44316)"/>
<path d="M31.0608 43.0275H31.0326C27.1762 43.0275 24.0459 41.108 24.0459 37.4497C24.0459 36.6538 24.7227 36.0117 25.5617 36.0117H36.4964C37.3354 36.0117 38.0122 36.6538 38.0122 37.4497V37.4764C38.0193 41.1214 34.9031 43.0275 31.0608 43.0275Z" fill="url(#paint3_radial_18374_44316)"/>
<path d="M36.8006 40.8678C35.5457 42.2991 33.4448 43.0281 31.0618 43.0281H31.0336C28.6366 43.0281 26.5286 42.2857 25.2666 40.8477C25.3442 39.7643 26.2889 38.9082 27.4521 38.9082H34.6151C35.7783 38.9082 36.7372 39.7777 36.8006 40.8678Z" fill="url(#paint4_linear_18374_44316)"/>
<path d="M36.8069 36.0385V36.8344C36.8069 37.9847 35.8269 38.9144 34.6143 38.9144H27.4514C26.2388 38.9144 25.2588 37.9847 25.2588 36.8344V36.0385C25.3575 36.0184 25.4632 36.0117 25.5619 36.0117H36.4967C36.6024 36.0117 36.7082 36.0184 36.8069 36.0385Z" fill="url(#paint5_linear_18374_44316)"/>
<path d="M46.2265 25.1912V26.5067C46.2265 26.7729 46.1096 27.0157 45.9226 27.2036C45.6654 27.4463 45.3225 27.8848 45.2445 28.5191C45.1354 29.4587 44.208 34.6266 39.3447 34.6266C34.4814 34.6266 32.9772 30.8368 32.7746 29.6074C32.5642 28.292 31.8705 28.1275 31.0288 28.1275C30.1871 28.1275 29.4934 28.2842 29.283 29.6074C29.0882 30.8368 27.7554 34.6266 22.7207 34.6266C17.686 34.6266 16.93 29.4587 16.8209 28.5191C16.7429 27.8848 16.4078 27.4463 16.1428 27.2036C15.948 27.0235 15.8389 26.7729 15.8389 26.5067V25.1912C15.8389 24.7997 16.0805 24.463 16.439 24.3143C25.4563 20.6576 29.1193 25.3087 29.1193 25.3087C29.5558 24.9955 31.0366 24.9798 31.0366 24.9798C31.0366 24.9798 32.5096 24.9955 32.9538 25.3087C32.9538 25.3087 36.6169 20.6576 45.6342 24.3143C45.9849 24.463 46.2265 24.7997 46.2265 25.1912Z" fill="url(#paint6_linear_18374_44316)"/>
<g style="mix-blend-mode:saturation">
<rect x="11" y="11" width="40" height="40" fill="white" fill-opacity="0.01"/>
</g>
<defs>
<linearGradient id="paint0_linear_18374_44316" x1="17.1749" y1="18.627" x2="45.061" y2="46.3834" gradientUnits="userSpaceOnUse">
<stop offset="0.1" stop-color="#56DFB2"/>
<stop offset="0.4" stop-color="#39D7A3"/>
<stop offset="0.51" stop-color="#1DC28C"/>
<stop offset="0.74" stop-color="#279B75"/>
<stop offset="0.9" stop-color="#10815C"/>
</linearGradient>
<linearGradient id="paint1_linear_18374_44316" x1="36.7775" y1="22.2497" x2="36.7775" y2="18.486" gradientUnits="userSpaceOnUse">
<stop stop-color="#283B35"/>
<stop offset="1" stop-color="#547067"/>
</linearGradient>
<linearGradient id="paint2_linear_18374_44316" x1="25.2802" y1="22.2497" x2="25.2802" y2="18.486" gradientUnits="userSpaceOnUse">
<stop stop-color="#283B35"/>
<stop offset="1" stop-color="#547067"/>
</linearGradient>
<radialGradient id="paint3_radial_18374_44316" cx="0" cy="0" r="1" gradientUnits="userSpaceOnUse" gradientTransform="translate(31.0329 39.5183) scale(5.58942 5.30239)">
<stop stop-color="#446157"/>
<stop offset="0.38" stop-color="#3C584F"/>
<stop offset="1" stop-color="#284038"/>
</radialGradient>
<linearGradient id="paint4_linear_18374_44316" x1="31.034" y1="43.0301" x2="31.034" y2="38.9102" gradientUnits="userSpaceOnUse">
<stop stop-color="#CCCCCC"/>
<stop offset="0.03" stop-color="#D0D0D0"/>
<stop offset="0.23" stop-color="#E9E9E9"/>
<stop offset="0.35" stop-color="#F2F2F2"/>
</linearGradient>
<linearGradient id="paint5_linear_18374_44316" x1="31.0336" y1="38.9097" x2="31.0336" y2="36.0084" gradientUnits="userSpaceOnUse">
<stop offset="0.65" stop-color="white"/>
<stop offset="0.75" stop-color="#F6F6F6"/>
<stop offset="0.9" stop-color="#DDDDDD"/>
<stop offset="1" stop-color="#CCCCCC"/>
</linearGradient>
<linearGradient id="paint6_linear_18374_44316" x1="31.0288" y1="34.6242" x2="31.0288" y2="22.9124" gradientUnits="userSpaceOnUse">
<stop stop-color="#283B35"/>
<stop offset="1" stop-color="#547067"/>
</linearGradient>
</defs>
</svg>
