<svg width="62" height="62" viewBox="0 0 62 62" fill="none" xmlns="http://www.w3.org/2000/svg">
<rect x="0.000976562" width="62" height="62" rx="8" fill="#73CF11" fill-opacity="0.1"/>
<path d="M35.5356 13.766L39.0678 20.7427L46.6547 21.8154C50.8419 22.4105 52.4871 27.594 49.4149 30.5068L44.0269 35.6199L45.3291 43.0351C46.0543 47.1537 41.7813 50.3249 38.0697 48.43L31.0286 44.8282L23.9876 48.43C20.276 50.3328 16.003 47.1537 16.7282 43.0351L18.0304 35.6199L12.6424 30.5068C9.57017 27.594 11.2232 22.4026 15.4026 21.8154L22.9895 20.7427L26.5217 13.766C28.4165 10.078 33.672 10.078 35.5356 13.766Z" fill="url(#paint0_linear_18374_44315)"/>
<path d="M37.1885 36.8965C37.1339 37.6482 35.3249 40.2478 31.052 40.2478C26.779 40.2478 24.97 37.6482 24.9154 36.8965C24.8686 36.2231 25.3287 35.9412 25.8979 36.0509C26.4593 36.1683 27.855 37.4838 31.052 37.4838C34.2489 37.4838 35.6446 36.1683 36.206 36.0509C36.7753 35.9334 37.2353 36.2231 37.1885 36.8965Z" fill="url(#paint1_radial_18374_44315)"/>
<path d="M36.4656 32.6689C38.4896 32.6689 40.1303 31.0213 40.1303 28.9888C40.1303 26.9563 38.4896 25.3086 36.4656 25.3086C34.4416 25.3086 32.8008 26.9563 32.8008 28.9888C32.8008 31.0213 34.4416 32.6689 36.4656 32.6689Z" fill="url(#paint2_radial_18374_44315)"/>
<path d="M36.4651 31.3779C37.7786 31.3779 38.8433 30.3087 38.8433 28.9898C38.8433 27.6708 37.7786 26.6016 36.4651 26.6016C35.1517 26.6016 34.0869 27.6708 34.0869 28.9898C34.0869 30.3087 35.1517 31.3779 36.4651 31.3779Z" fill="url(#paint3_radial_18374_44315)"/>
<path d="M37.6197 29.068C38.2958 29.068 38.8439 28.5176 38.8439 27.8387C38.8439 27.1598 38.2958 26.6094 37.6197 26.6094C36.9436 26.6094 36.3955 27.1598 36.3955 27.8387C36.3955 28.5176 36.9436 29.068 37.6197 29.068Z" fill="white"/>
<path d="M25.7029 32.6689C27.7269 32.6689 29.3677 31.0213 29.3677 28.9888C29.3677 26.9563 27.7269 25.3086 25.7029 25.3086C23.6789 25.3086 22.0381 26.9563 22.0381 28.9888C22.0381 31.0213 23.6789 32.6689 25.7029 32.6689Z" fill="url(#paint4_radial_18374_44315)"/>
<path d="M25.7034 31.376C27.0169 31.376 28.0816 30.3068 28.0816 28.9878C28.0816 27.6688 27.0169 26.5996 25.7034 26.5996C24.39 26.5996 23.3252 27.6688 23.3252 28.9878C23.3252 30.3068 24.39 31.376 25.7034 31.376Z" fill="url(#paint5_radial_18374_44315)"/>
<path d="M26.8492 29.068C27.5253 29.068 28.0734 28.5176 28.0734 27.8387C28.0734 27.1598 27.5253 26.6094 26.8492 26.6094C26.1731 26.6094 25.625 27.1598 25.625 27.8387C25.625 28.5176 26.1731 29.068 26.8492 29.068Z" fill="white"/>
<path d="M39.6917 22.9901C39.6917 23.687 38.99 24.1568 38.3506 23.8905C37.7658 23.6478 37.0406 23.4364 36.2453 23.4364C35.4499 23.4364 34.7248 23.6478 34.14 23.8905C33.5006 24.1568 32.7988 23.687 32.7988 22.9901C32.7988 22.669 32.9548 22.3715 33.2121 22.1914C33.7267 21.839 34.717 21.3301 36.2453 21.3301C37.7658 21.3301 38.7638 21.839 39.2785 22.1914C39.5358 22.3715 39.6917 22.669 39.6917 22.9901Z" fill="url(#paint6_linear_18374_44315)"/>
<path d="M22.4131 22.9901C22.4131 23.687 23.1149 24.1568 23.7542 23.8905C24.339 23.6478 25.0642 23.4364 25.8595 23.4364C26.6549 23.4364 27.38 23.6478 27.9648 23.8905C28.6042 24.1568 29.306 23.687 29.306 22.9901C29.306 22.669 29.15 22.3715 28.8927 22.1914C28.3781 21.839 27.3878 21.3301 25.8595 21.3301C24.3312 21.3301 23.341 21.839 22.8263 22.1914C22.569 22.3715 22.4131 22.669 22.4131 22.9901Z" fill="url(#paint7_linear_18374_44315)"/>
<g style="mix-blend-mode:saturation">
<rect x="11.001" y="11" width="40" height="40" fill="white" fill-opacity="0.01"/>
</g>
<defs>
<linearGradient id="paint0_linear_18374_44315" x1="17.1592" y1="18.627" x2="45.0454" y2="46.3966" gradientUnits="userSpaceOnUse">
<stop offset="0.1" stop-color="#B1EB72"/>
<stop offset="0.4" stop-color="#8CE231"/>
<stop offset="0.51" stop-color="#73CF11"/>
<stop offset="0.74" stop-color="#67BB0E"/>
<stop offset="0.9" stop-color="#64BE05"/>
</linearGradient>
<radialGradient id="paint1_radial_18374_44315" cx="0" cy="0" r="1" gradientUnits="userSpaceOnUse" gradientTransform="translate(31.0527 38.1383) scale(4.58878 4.60804)">
<stop stop-color="#614444"/>
<stop offset="0.38" stop-color="#583C3C"/>
<stop offset="1" stop-color="#402828"/>
</radialGradient>
<radialGradient id="paint2_radial_18374_44315" cx="0" cy="0" r="1" gradientUnits="userSpaceOnUse" gradientTransform="translate(36.4671 28.9919) scale(3.66166 3.67704)">
<stop offset="0.75" stop-color="white"/>
<stop offset="0.82" stop-color="#FAFAFA"/>
<stop offset="0.89" stop-color="#EEEEEE"/>
<stop offset="0.96" stop-color="#D9D9D9"/>
<stop offset="1" stop-color="#CCCCCC"/>
</radialGradient>
<radialGradient id="paint3_radial_18374_44315" cx="0" cy="0" r="1" gradientUnits="userSpaceOnUse" gradientTransform="translate(36.4667 28.9929) scale(2.37821 2.38819)">
<stop stop-color="#705454"/>
<stop offset="0.27" stop-color="#674C4C"/>
<stop offset="0.71" stop-color="#4E3838"/>
<stop offset="1" stop-color="#3B2828"/>
</radialGradient>
<radialGradient id="paint4_radial_18374_44315" cx="0" cy="0" r="1" gradientUnits="userSpaceOnUse" gradientTransform="translate(25.7013 28.9919) scale(3.66166 3.67704)">
<stop offset="0.75" stop-color="white"/>
<stop offset="0.82" stop-color="#FAFAFA"/>
<stop offset="0.89" stop-color="#EEEEEE"/>
<stop offset="0.96" stop-color="#D9D9D9"/>
<stop offset="1" stop-color="#CCCCCC"/>
</radialGradient>
<radialGradient id="paint5_radial_18374_44315" cx="0" cy="0" r="1" gradientUnits="userSpaceOnUse" gradientTransform="translate(25.7018 28.9909) scale(2.37821 2.38819)">
<stop stop-color="#705454"/>
<stop offset="0.27" stop-color="#674C4C"/>
<stop offset="0.71" stop-color="#4E3838"/>
<stop offset="1" stop-color="#3B2828"/>
</radialGradient>
<linearGradient id="paint6_linear_18374_44315" x1="36.2476" y1="23.9623" x2="36.2476" y2="21.3301" gradientUnits="userSpaceOnUse">
<stop stop-color="#3B2828"/>
<stop offset="1" stop-color="#705454"/>
</linearGradient>
<linearGradient id="paint7_linear_18374_44315" x1="25.8595" y1="23.9623" x2="25.8595" y2="21.3301" gradientUnits="userSpaceOnUse">
<stop stop-color="#3B2828"/>
<stop offset="1" stop-color="#705454"/>
</linearGradient>
</defs>
</svg>
