<svg width="62" height="62" viewBox="0 0 62 62" fill="none" xmlns="http://www.w3.org/2000/svg">
<rect width="62" height="62" rx="8" fill="#FDEAEA"/>
<path d="M35.5125 13.766L39.0499 20.7427L46.6477 21.8154C50.841 22.4105 52.4887 27.594 49.412 30.5068L44.0162 35.6199L45.3203 43.0351C46.0465 47.1537 41.7673 50.3249 38.0503 48.43L30.999 44.8282L23.9478 48.43C20.2308 50.3328 15.9516 47.1537 16.6778 43.0351L17.9819 35.6199L12.5861 30.5068C9.50942 27.594 11.1649 22.4026 15.3504 21.8154L22.9482 20.7427L26.4856 13.766C28.3831 10.078 33.6462 10.078 35.5125 13.766Z" fill="url(#paint0_linear_18374_44312)"/>
<path d="M37.0203 33.0434C39.4613 33.0434 41.4401 31.0592 41.4401 28.6115C41.4401 26.1639 39.4613 24.1797 37.0203 24.1797C34.5794 24.1797 32.6006 26.1639 32.6006 28.6115C32.6006 31.0592 34.5794 33.0434 37.0203 33.0434Z" fill="url(#paint1_radial_18374_44312)"/>
<path d="M37.0201 31.5876C38.6589 31.5876 39.9874 30.2555 39.9874 28.6122C39.9874 26.9689 38.6589 25.6367 37.0201 25.6367C35.3812 25.6367 34.0527 26.9689 34.0527 28.6122C34.0527 30.2555 35.3812 31.5876 37.0201 31.5876Z" fill="url(#paint2_radial_18374_44312)"/>
<path d="M35.6145 31.6026C36.4598 31.6026 37.145 30.9155 37.145 30.0679C37.145 29.2203 36.4598 28.5332 35.6145 28.5332C34.7692 28.5332 34.084 29.2203 34.084 30.0679C34.084 30.9155 34.7692 31.6026 35.6145 31.6026Z" fill="white"/>
<path d="M25.0106 33.0434C27.4515 33.0434 29.4303 31.0592 29.4303 28.6115C29.4303 26.1639 27.4515 24.1797 25.0106 24.1797C22.5696 24.1797 20.5908 26.1639 20.5908 28.6115C20.5908 31.0592 22.5696 33.0434 25.0106 33.0434Z" fill="url(#paint3_radial_18374_44312)"/>
<path d="M25.0103 31.5876C26.6491 31.5876 27.9776 30.2555 27.9776 28.6122C27.9776 26.9689 26.6491 25.6367 25.0103 25.6367C23.3715 25.6367 22.043 26.9689 22.043 28.6122C22.043 30.2555 23.3715 31.5876 25.0103 31.5876Z" fill="url(#paint4_radial_18374_44312)"/>
<path d="M26.4163 31.6026C27.2615 31.6026 27.9468 30.9155 27.9468 30.0679C27.9468 29.2203 27.2615 28.5332 26.4163 28.5332C25.571 28.5332 24.8857 29.2203 24.8857 30.0679C24.8857 30.9155 25.571 31.6026 26.4163 31.6026Z" fill="white"/>
<path d="M40.416 22.5121C40.7049 23.3264 40.088 24.1721 39.2212 24.1329C38.4404 24.0938 37.4955 24.1642 36.5584 24.4931C35.6292 24.8298 34.8561 25.3857 34.2783 25.9182C33.6458 26.4976 32.6228 26.2471 32.3261 25.4327C32.1934 25.0569 32.248 24.6419 32.4745 24.3208C32.9274 23.6866 33.8801 22.6687 35.6683 22.0266C37.4565 21.3767 38.8386 21.549 39.5882 21.7525C39.9787 21.8465 40.2832 22.1362 40.416 22.5121Z" fill="url(#paint5_linear_18374_44312)"/>
<path d="M21.6052 22.5121C21.3163 23.3264 21.9332 24.1721 22.8 24.1329C23.5887 24.0938 24.5257 24.1642 25.4628 24.4931C26.392 24.8298 27.1651 25.3857 27.7429 25.9182C28.3754 26.4976 29.3984 26.2471 29.6951 25.4327C29.8278 25.0569 29.7732 24.6419 29.5467 24.3208C29.0938 23.6866 28.1412 22.6687 26.353 22.0266C24.5648 21.3767 23.1826 21.549 22.433 21.7525C22.0425 21.8465 21.738 22.1362 21.6052 22.5121Z" fill="url(#paint6_linear_18374_44312)"/>
<path d="M25.5876 39.2293C25.6344 38.5638 27.2352 36.2695 31.0146 36.2695C34.7941 36.2695 36.3948 38.5638 36.4417 39.2293C36.4807 39.8244 36.0747 40.075 35.5749 39.9732C35.0752 39.8714 33.8414 38.7125 31.0146 38.7125C28.1879 38.7125 26.9541 39.8714 26.4543 39.9732C25.9546 40.075 25.5485 39.8244 25.5876 39.2293Z" fill="url(#paint7_radial_18374_44312)"/>
<g style="mix-blend-mode:saturation">
<rect x="11" y="11" width="40" height="40" fill="white" fill-opacity="0.01"/>
</g>
<defs>
<linearGradient id="paint0_linear_18374_44312" x1="17.1095" y1="18.627" x2="44.9958" y2="46.4371" gradientUnits="userSpaceOnUse">
<stop offset="0.1" stop-color="#FFC05C"/>
<stop offset="0.5" stop-color="#FF4200"/>
<stop offset="0.61" stop-color="#ED3D00"/>
<stop offset="0.83" stop-color="#BF3100"/>
<stop offset="0.9" stop-color="#B02D00"/>
</linearGradient>
<radialGradient id="paint1_radial_18374_44312" cx="0" cy="0" r="1" gradientUnits="userSpaceOnUse" gradientTransform="translate(37.0172 28.61) scale(4.41896 4.43108)">
<stop offset="0.75" stop-color="white"/>
<stop offset="0.82" stop-color="#FAFAFA"/>
<stop offset="0.89" stop-color="#EEEEEE"/>
<stop offset="0.96" stop-color="#D9D9D9"/>
<stop offset="1" stop-color="#CCCCCC"/>
</radialGradient>
<radialGradient id="paint2_radial_18374_44312" cx="0" cy="0" r="1" gradientUnits="userSpaceOnUse" gradientTransform="translate(37.0169 28.6106) scale(2.96732 2.97545)">
<stop stop-color="#9E2424"/>
<stop offset="0.23" stop-color="#952424"/>
<stop offset="0.6" stop-color="#7C2525"/>
<stop offset="1" stop-color="#5B2828"/>
</radialGradient>
<radialGradient id="paint3_radial_18374_44312" cx="0" cy="0" r="1" gradientUnits="userSpaceOnUse" gradientTransform="translate(25.009 28.61) scale(4.41896 4.43108)">
<stop offset="0.75" stop-color="white"/>
<stop offset="0.82" stop-color="#FAFAFA"/>
<stop offset="0.89" stop-color="#EEEEEE"/>
<stop offset="0.96" stop-color="#D9D9D9"/>
<stop offset="1" stop-color="#CCCCCC"/>
</radialGradient>
<radialGradient id="paint4_radial_18374_44312" cx="0" cy="0" r="1" gradientUnits="userSpaceOnUse" gradientTransform="translate(25.0087 28.6106) scale(2.96732 2.97545)">
<stop stop-color="#9E2424"/>
<stop offset="0.23" stop-color="#952424"/>
<stop offset="0.6" stop-color="#7C2525"/>
<stop offset="1" stop-color="#5B2828"/>
</radialGradient>
<linearGradient id="paint5_linear_18374_44312" x1="36.3769" y1="26.2333" x2="36.3769" y2="21.5693" gradientUnits="userSpaceOnUse">
<stop stop-color="#5B2828"/>
<stop offset="0.4" stop-color="#7C2525"/>
<stop offset="0.77" stop-color="#952424"/>
<stop offset="1" stop-color="#9E2424"/>
</linearGradient>
<linearGradient id="paint6_linear_18374_44312" x1="25.6475" y1="26.2333" x2="25.6475" y2="21.5693" gradientUnits="userSpaceOnUse">
<stop stop-color="#5B2828"/>
<stop offset="0.4" stop-color="#7C2525"/>
<stop offset="0.77" stop-color="#952424"/>
<stop offset="1" stop-color="#9E2424"/>
</linearGradient>
<radialGradient id="paint7_radial_18374_44312" cx="0" cy="0" r="1" gradientUnits="userSpaceOnUse" gradientTransform="translate(31.0123 38.1326) scale(4.05601 4.06713)">
<stop stop-color="#7A3535"/>
<stop offset="1" stop-color="#5B2121"/>
</radialGradient>
</defs>
</svg>
