<svg width="62" height="62" viewBox="0 0 62 62" fill="none" xmlns="http://www.w3.org/2000/svg">
<rect x="0.000976562" width="61.9996" height="62.0002" rx="8" fill="#F5F6F7"/>
<path d="M35.5356 13.7535L39.0678 20.6988L46.6547 21.7667C50.8419 22.3591 52.4871 27.5193 49.4149 30.419L44.0269 35.5091L45.3291 42.8909C46.0543 46.991 41.7813 50.1479 38.0697 48.2616L31.0286 44.6759L23.9876 48.2616C20.276 50.1557 16.003 46.991 16.7282 42.8909L18.0304 35.5091L12.6424 30.419C9.57017 27.5193 11.2232 22.3513 15.4026 21.7667L22.9895 20.6988L26.5217 13.7535C28.4165 10.0822 33.672 10.0822 35.5356 13.7535Z" fill="url(#paint0_linear_9182_34327)"/>
<path d="M37.1895 36.7793C37.1349 37.5276 35.3259 40.1155 31.0529 40.1155C26.7799 40.1155 24.9709 37.5276 24.9164 36.7793C24.8696 36.109 25.3296 35.8283 25.8988 35.9375C26.4603 36.0544 27.856 37.3639 31.0529 37.3639C34.2499 37.3639 35.6456 36.0544 36.207 35.9375C36.7762 35.8206 37.2363 36.109 37.1895 36.7793Z" fill="url(#paint1_radial_9182_34327)"/>
<path d="M36.4646 32.5694C38.4886 32.5694 40.1294 30.9291 40.1294 28.9058C40.1294 26.8824 38.4886 25.2422 36.4646 25.2422C34.4406 25.2422 32.7998 26.8824 32.7998 28.9058C32.7998 30.9291 34.4406 32.5694 36.4646 32.5694Z" fill="url(#paint2_radial_9182_34327)"/>
<path d="M36.4641 31.2822C37.7776 31.2822 38.8424 30.2178 38.8424 28.9048C38.8424 27.5918 37.7776 26.5273 36.4641 26.5273C35.1507 26.5273 34.0859 27.5918 34.0859 28.9048C34.0859 30.2178 35.1507 31.2822 36.4641 31.2822Z" fill="url(#paint3_radial_9182_34327)"/>
<path d="M37.6187 28.9828C38.2948 28.9828 38.8429 28.4348 38.8429 27.759C38.8429 27.0831 38.2948 26.5352 37.6187 26.5352C36.9426 26.5352 36.3945 27.0831 36.3945 27.759C36.3945 28.4348 36.9426 28.9828 37.6187 28.9828Z" fill="white"/>
<path d="M25.7038 32.5694C27.7278 32.5694 29.3686 30.9291 29.3686 28.9058C29.3686 26.8824 27.7278 25.2422 25.7038 25.2422C23.6798 25.2422 22.0391 26.8824 22.0391 28.9058C22.0391 30.9291 23.6798 32.5694 25.7038 32.5694Z" fill="url(#paint4_radial_9182_34327)"/>
<path d="M25.7044 31.2822C27.0178 31.2822 28.0826 30.2178 28.0826 28.9048C28.0826 27.5918 27.0178 26.5273 25.7044 26.5273C24.3909 26.5273 23.3262 27.5918 23.3262 28.9048C23.3262 30.2178 24.3909 31.2822 25.7044 31.2822Z" fill="url(#paint5_radial_9182_34327)"/>
<path d="M26.8502 28.9828C27.5263 28.9828 28.0744 28.4348 28.0744 27.759C28.0744 27.0831 27.5263 26.5352 26.8502 26.5352C26.1741 26.5352 25.626 27.0831 25.626 27.759C25.626 28.4348 26.1741 28.9828 26.8502 28.9828Z" fill="white"/>
<path d="M39.6917 22.9357C39.6917 23.6295 38.99 24.0972 38.3506 23.8321C37.7658 23.5905 37.0406 23.38 36.2453 23.38C35.4499 23.38 34.7248 23.5905 34.14 23.8321C33.5006 24.0972 32.7988 23.6295 32.7988 22.9357C32.7988 22.6161 32.9548 22.3199 33.2121 22.1406C33.7267 21.7899 34.717 21.2832 36.2453 21.2832C37.7658 21.2832 38.7638 21.7899 39.2785 22.1406C39.5358 22.3199 39.6917 22.6161 39.6917 22.9357Z" fill="url(#paint6_linear_9182_34327)"/>
<path d="M22.4131 22.9357C22.4131 23.6295 23.1149 24.0972 23.7542 23.8321C24.339 23.5905 25.0642 23.38 25.8595 23.38C26.6549 23.38 27.38 23.5905 27.9648 23.8321C28.6042 24.0972 29.306 23.6295 29.306 22.9357C29.306 22.6161 29.15 22.3199 28.8927 22.1406C28.3781 21.7899 27.3878 21.2832 25.8595 21.2832C24.3312 21.2832 23.341 21.7899 22.8263 22.1406C22.569 22.3199 22.4131 22.6161 22.4131 22.9357Z" fill="url(#paint7_linear_9182_34327)"/>
<g style="mix-blend-mode:saturation">
<rect x="11.001" y="11.0898" width="39.9227" height="39.9099" fill="white"/>
</g>
<defs>
<linearGradient id="paint0_linear_9182_34327" x1="17.1592" y1="18.5927" x2="44.9201" y2="46.3625" gradientUnits="userSpaceOnUse">
<stop offset="0.1" stop-color="#FFF1AB"/>
<stop offset="0.4" stop-color="#FFDA24"/>
<stop offset="0.51" stop-color="#FFC81D"/>
<stop offset="0.74" stop-color="#FF9A0C"/>
<stop offset="0.9" stop-color="#FF7700"/>
</linearGradient>
<radialGradient id="paint1_radial_9182_34327" cx="0" cy="0" r="1" gradientUnits="userSpaceOnUse" gradientTransform="translate(31.0537 38.0155) scale(4.58878 4.5873)">
<stop stop-color="#614444"/>
<stop offset="0.38" stop-color="#583C3C"/>
<stop offset="1" stop-color="#402828"/>
</radialGradient>
<radialGradient id="paint2_radial_9182_34327" cx="0" cy="0" r="1" gradientUnits="userSpaceOnUse" gradientTransform="translate(36.4661 28.9089) scale(3.66166 3.66048)">
<stop offset="0.75" stop-color="white"/>
<stop offset="0.82" stop-color="#FAFAFA"/>
<stop offset="0.89" stop-color="#EEEEEE"/>
<stop offset="0.96" stop-color="#D9D9D9"/>
<stop offset="1" stop-color="#CCCCCC"/>
</radialGradient>
<radialGradient id="paint3_radial_9182_34327" cx="0" cy="0" r="1" gradientUnits="userSpaceOnUse" gradientTransform="translate(36.4657 28.9079) scale(2.37821 2.37744)">
<stop stop-color="#705454"/>
<stop offset="0.27" stop-color="#674C4C"/>
<stop offset="0.71" stop-color="#4E3838"/>
<stop offset="1" stop-color="#3B2828"/>
</radialGradient>
<radialGradient id="paint4_radial_9182_34327" cx="0" cy="0" r="1" gradientUnits="userSpaceOnUse" gradientTransform="translate(25.7023 28.9089) scale(3.66166 3.66048)">
<stop offset="0.75" stop-color="white"/>
<stop offset="0.82" stop-color="#FAFAFA"/>
<stop offset="0.89" stop-color="#EEEEEE"/>
<stop offset="0.96" stop-color="#D9D9D9"/>
<stop offset="1" stop-color="#CCCCCC"/>
</radialGradient>
<radialGradient id="paint5_radial_9182_34327" cx="0" cy="0" r="1" gradientUnits="userSpaceOnUse" gradientTransform="translate(25.7028 28.9079) scale(2.37821 2.37744)">
<stop stop-color="#705454"/>
<stop offset="0.27" stop-color="#674C4C"/>
<stop offset="0.71" stop-color="#4E3838"/>
<stop offset="1" stop-color="#3B2828"/>
</radialGradient>
<linearGradient id="paint6_linear_9182_34327" x1="36.2476" y1="23.9035" x2="36.2476" y2="21.2832" gradientUnits="userSpaceOnUse">
<stop stop-color="#3B2828"/>
<stop offset="1" stop-color="#705454"/>
</linearGradient>
<linearGradient id="paint7_linear_9182_34327" x1="25.8595" y1="23.9035" x2="25.8595" y2="21.2832" gradientUnits="userSpaceOnUse">
<stop stop-color="#3B2828"/>
<stop offset="1" stop-color="#705454"/>
</linearGradient>
</defs>
</svg>
