<svg width="62" height="62" viewBox="0 0 62 62" fill="none" xmlns="http://www.w3.org/2000/svg">
<rect width="62.0005" height="62.0002" rx="8" fill="#F5F6F7"/>
<path d="M35.528 13.7535L39.0619 20.6988L46.6525 21.7667C50.8417 22.3591 52.4878 27.5193 49.4141 30.419L44.0235 35.5091L45.3263 42.8909C46.0518 46.991 41.7767 50.1479 38.0633 48.2616L31.0189 44.6759L23.9744 48.2616C20.261 50.1557 15.9859 46.991 16.7114 42.8909L18.0142 35.5091L12.6236 30.419C9.54992 27.5193 11.2038 22.3513 15.3852 21.7667L22.9758 20.6988L26.5098 13.7535C28.4054 10.0822 33.6635 10.0822 35.528 13.7535Z" fill="url(#paint0_linear_9182_34326)"/>
<path d="M37.1571 34.2684C39.4406 34.2684 41.2917 32.4188 41.2917 30.1372C41.2917 27.8555 39.4406 26.0059 37.1571 26.0059C34.8736 26.0059 33.0225 27.8555 33.0225 30.1372C33.0225 32.4188 34.8736 34.2684 37.1571 34.2684Z" fill="url(#paint1_radial_9182_34326)"/>
<path d="M37.1572 32.8257C38.6437 32.8257 39.8487 31.6217 39.8487 30.1365C39.8487 28.6513 38.6437 27.4473 37.1572 27.4473C35.6708 27.4473 34.4658 28.6513 34.4658 30.1365C34.4658 31.6217 35.6708 32.8257 37.1572 32.8257Z" fill="url(#paint2_radial_9182_34326)"/>
<path d="M38.4521 30.2222C39.219 30.2222 39.8407 29.601 39.8407 28.8348C39.8407 28.0685 39.219 27.4473 38.4521 27.4473C37.6852 27.4473 37.0635 28.0685 37.0635 28.8348C37.0635 29.601 37.6852 30.2222 38.4521 30.2222Z" fill="white"/>
<path d="M24.996 34.2684C27.2795 34.2684 29.1306 32.4188 29.1306 30.1372C29.1306 27.8555 27.2795 26.0059 24.996 26.0059C22.7125 26.0059 20.8613 27.8555 20.8613 30.1372C20.8613 32.4188 22.7125 34.2684 24.996 34.2684Z" fill="url(#paint3_radial_9182_34326)"/>
<path d="M24.9961 32.8257C26.4825 32.8257 27.6875 31.6217 27.6875 30.1365C27.6875 28.6513 26.4825 27.4473 24.9961 27.4473C23.5097 27.4473 22.3047 28.6513 22.3047 30.1365C22.3047 31.6217 23.5097 32.8257 24.9961 32.8257Z" fill="url(#paint4_radial_9182_34326)"/>
<path d="M26.291 30.2222C27.0579 30.2222 27.6796 29.601 27.6796 28.8348C27.6796 28.0685 27.0579 27.4473 26.291 27.4473C25.524 27.4473 24.9023 28.0685 24.9023 28.8348C24.9023 29.601 25.524 30.2222 26.291 30.2222Z" fill="white"/>
<path d="M27.5784 38.6113H35.0207C35.676 38.6113 36.2065 39.1414 36.2065 39.7962C36.2065 40.4509 35.676 40.981 35.0207 40.981H27.5784C26.9231 40.981 26.3926 40.4509 26.3926 39.7962C26.3926 39.1414 26.9231 38.6113 27.5784 38.6113Z" fill="url(#paint5_radial_9182_34326)"/>
<path d="M21.0176 23.9333C21.0176 24.7128 21.8133 25.2428 22.531 24.9466C23.1863 24.6738 24.0132 24.44 24.9104 24.44C25.8075 24.44 26.6345 24.6738 27.2898 24.9466C28.0075 25.2506 28.8032 24.7128 28.8032 23.9333C28.8032 23.5747 28.6316 23.2395 28.3351 23.0369C27.7578 22.6393 26.6345 22.0703 24.9104 22.0703C23.1863 22.0703 22.0629 22.6393 21.4857 23.0369C21.1892 23.2395 21.0176 23.5747 21.0176 23.9333Z" fill="url(#paint6_linear_9182_34326)"/>
<path d="M41.059 23.9333C41.059 24.7128 40.2633 25.2428 39.5456 24.9466C38.8903 24.6738 38.0634 24.44 37.1662 24.44C36.2691 24.44 35.4422 24.6738 34.7869 24.9466C34.0692 25.2506 33.2734 24.7128 33.2734 23.9333C33.2734 23.5747 33.4451 23.2395 33.7415 23.0369C34.3188 22.6393 35.4422 22.0703 37.1662 22.0703C38.8903 22.0703 40.0137 22.6393 40.591 23.0369C40.8874 23.2395 41.059 23.5747 41.059 23.9333Z" fill="url(#paint7_linear_9182_34326)"/>
<g style="mix-blend-mode:saturation">
<rect x="11" y="11.0898" width="39.9422" height="39.9099" fill="white"/>
</g>
<defs>
<linearGradient id="paint0_linear_9182_34326" x1="17.1427" y1="18.5927" x2="44.9036" y2="46.3761" gradientUnits="userSpaceOnUse">
<stop offset="0.1" stop-color="#FFD591"/>
<stop offset="0.4" stop-color="#FFC05C"/>
<stop offset="0.51" stop-color="#FFC05C"/>
<stop offset="0.74" stop-color="#FFC05C"/>
<stop offset="0.9" stop-color="#FF9E44"/>
</linearGradient>
<radialGradient id="paint1_radial_9182_34326" cx="0" cy="0" r="1" gradientUnits="userSpaceOnUse" gradientTransform="translate(37.1532 30.1395) scale(4.13698 4.13363)">
<stop offset="0.75" stop-color="white"/>
<stop offset="0.82" stop-color="#FAFAFA"/>
<stop offset="0.89" stop-color="#EEEEEE"/>
<stop offset="0.96" stop-color="#D9D9D9"/>
<stop offset="1" stop-color="#CCCCCC"/>
</radialGradient>
<radialGradient id="paint2_radial_9182_34326" cx="0" cy="0" r="1" gradientUnits="userSpaceOnUse" gradientTransform="translate(37.1533 30.1388) scale(2.68752 2.68534)">
<stop stop-color="#705454"/>
<stop offset="0.27" stop-color="#674C4C"/>
<stop offset="0.71" stop-color="#4E3838"/>
<stop offset="1" stop-color="#3B2828"/>
</radialGradient>
<radialGradient id="paint3_radial_9182_34326" cx="0" cy="0" r="1" gradientUnits="userSpaceOnUse" gradientTransform="translate(24.9921 30.1395) scale(4.13698 4.13363)">
<stop offset="0.75" stop-color="white"/>
<stop offset="0.82" stop-color="#FAFAFA"/>
<stop offset="0.89" stop-color="#EEEEEE"/>
<stop offset="0.96" stop-color="#D9D9D9"/>
<stop offset="1" stop-color="#CCCCCC"/>
</radialGradient>
<radialGradient id="paint4_radial_9182_34326" cx="0" cy="0" r="1" gradientUnits="userSpaceOnUse" gradientTransform="translate(24.9922 30.1388) scale(2.68752 2.68534)">
<stop stop-color="#705454"/>
<stop offset="0.27" stop-color="#674C4C"/>
<stop offset="0.71" stop-color="#4E3838"/>
<stop offset="1" stop-color="#3B2828"/>
</radialGradient>
<radialGradient id="paint5_radial_9182_34326" cx="0" cy="0" r="1" gradientUnits="userSpaceOnUse" gradientTransform="translate(31.3023 39.7954) scale(3.56913 3.56624)">
<stop stop-color="#614444"/>
<stop offset="0.38" stop-color="#583C3C"/>
<stop offset="1" stop-color="#402828"/>
</radialGradient>
<linearGradient id="paint6_linear_9182_34326" x1="24.9096" y1="25.0294" x2="24.9096" y2="22.0703" gradientUnits="userSpaceOnUse">
<stop stop-color="#3B2828"/>
<stop offset="1" stop-color="#705454"/>
</linearGradient>
<linearGradient id="paint7_linear_9182_34326" x1="37.1694" y1="25.0294" x2="37.1694" y2="22.0703" gradientUnits="userSpaceOnUse">
<stop stop-color="#3B2828"/>
<stop offset="1" stop-color="#705454"/>
</linearGradient>
</defs>
</svg>
