<svg width="62" height="62" viewBox="0 0 62 62" fill="none" xmlns="http://www.w3.org/2000/svg">
<rect width="62" height="62" rx="8" fill="#F5F6F7"/>
<path d="M35.5125 13.7535L39.0499 20.6988L46.6477 21.7667C50.841 22.3591 52.4887 27.5193 49.412 30.419L44.0162 35.5091L45.3203 42.8909C46.0465 46.991 41.7673 50.1479 38.0503 48.2616L30.999 44.6759L23.9478 48.2616C20.2308 50.1557 15.9516 46.991 16.6778 42.8909L17.9819 35.5091L12.5861 30.419C9.50942 27.5193 11.1649 22.3513 15.3504 21.7667L22.9482 20.6988L26.4856 13.7535C28.3831 10.0822 33.6462 10.0822 35.5125 13.7535Z" fill="url(#paint0_linear_9182_34324)"/>
<path d="M37.0194 32.9449C39.4603 32.9449 41.4391 30.9696 41.4391 28.533C41.4391 26.0964 39.4603 24.1211 37.0194 24.1211C34.5784 24.1211 32.5996 26.0964 32.5996 28.533C32.5996 30.9696 34.5784 32.9449 37.0194 32.9449Z" fill="url(#paint1_radial_9182_34324)"/>
<path d="M37.0191 31.4944C38.6579 31.4944 39.9864 30.1683 39.9864 28.5324C39.9864 26.8965 38.6579 25.5703 37.0191 25.5703C35.3803 25.5703 34.0518 26.8965 34.0518 28.5324C34.0518 30.1683 35.3803 31.4944 37.0191 31.4944Z" fill="url(#paint2_radial_9182_34324)"/>
<path d="M35.6135 31.5107C36.4588 31.5107 37.144 30.8267 37.144 29.9829C37.144 29.1391 36.4588 28.4551 35.6135 28.4551C34.7682 28.4551 34.083 29.1391 34.083 29.9829C34.083 30.8267 34.7682 31.5107 35.6135 31.5107Z" fill="white"/>
<path d="M25.0096 32.9449C27.4505 32.9449 29.4293 30.9696 29.4293 28.533C29.4293 26.0964 27.4505 24.1211 25.0096 24.1211C22.5686 24.1211 20.5898 26.0964 20.5898 28.533C20.5898 30.9696 22.5686 32.9449 25.0096 32.9449Z" fill="url(#paint3_radial_9182_34324)"/>
<path d="M25.0093 31.4944C26.6481 31.4944 27.9766 30.1683 27.9766 28.5324C27.9766 26.8965 26.6481 25.5703 25.0093 25.5703C23.3705 25.5703 22.042 26.8965 22.042 28.5324C22.042 30.1683 23.3705 31.4944 25.0093 31.4944Z" fill="url(#paint4_radial_9182_34324)"/>
<path d="M26.4153 31.5107C27.2606 31.5107 27.9458 30.8267 27.9458 29.9829C27.9458 29.1391 27.2606 28.4551 26.4153 28.4551C25.57 28.4551 24.8848 29.1391 24.8848 29.9829C24.8848 30.8267 25.57 31.5107 26.4153 31.5107Z" fill="white"/>
<path d="M40.415 22.4609C40.7039 23.2716 40.087 24.1135 39.2203 24.0745C38.4394 24.0355 37.4945 24.1057 36.5575 24.4331C35.6282 24.7682 34.8552 25.3217 34.2773 25.8517C33.6448 26.4286 32.6219 26.1791 32.3251 25.3684C32.1924 24.9943 32.2471 24.5812 32.4735 24.2616C32.9264 23.6302 33.8791 22.6168 35.6673 21.9777C37.4555 21.3307 38.8376 21.5022 39.5873 21.7048C39.9777 21.7984 40.2822 22.0868 40.415 22.4609Z" fill="url(#paint5_linear_9182_34324)"/>
<path d="M21.6043 22.4609C21.3153 23.2716 21.9322 24.1135 22.799 24.0745C23.5877 24.0355 24.5247 24.1057 25.4618 24.4331C26.391 24.7682 27.1641 25.3217 27.7419 25.8517C28.3744 26.4286 29.3974 26.1791 29.6941 25.3684C29.8269 24.9943 29.7722 24.5812 29.5457 24.2616C29.0928 23.6302 28.1402 22.6168 26.352 21.9777C24.5638 21.3307 23.1816 21.5022 22.432 21.7048C22.0416 21.7984 21.737 22.0868 21.6043 22.4609Z" fill="url(#paint6_linear_9182_34324)"/>
<path d="M25.5866 39.1027C25.6334 38.4402 27.2342 36.1562 31.0137 36.1562C34.7931 36.1562 36.3939 38.4402 36.4407 39.1027C36.4798 39.6951 36.0737 39.9446 35.574 39.8432C35.0742 39.7419 33.8404 38.5883 31.0137 38.5883C28.1869 38.5883 26.9531 39.7419 26.4534 39.8432C25.9536 39.9446 25.5475 39.6951 25.5866 39.1027Z" fill="url(#paint7_radial_9182_34324)"/>
<g style="mix-blend-mode:saturation">
<rect x="11" y="11.0898" width="39.9807" height="39.9099" fill="white"/>
</g>
<defs>
<linearGradient id="paint0_linear_9182_34324" x1="17.1095" y1="18.5927" x2="44.8704" y2="46.4028" gradientUnits="userSpaceOnUse">
<stop offset="0.1" stop-color="#FFC05C"/>
<stop offset="0.5" stop-color="#FF4200"/>
<stop offset="0.61" stop-color="#ED3D00"/>
<stop offset="0.83" stop-color="#BF3100"/>
<stop offset="0.9" stop-color="#B02D00"/>
</linearGradient>
<radialGradient id="paint1_radial_9182_34324" cx="0" cy="0" r="1" gradientUnits="userSpaceOnUse" gradientTransform="translate(37.0162 28.5314) scale(4.41896 4.41113)">
<stop offset="0.75" stop-color="white"/>
<stop offset="0.82" stop-color="#FAFAFA"/>
<stop offset="0.89" stop-color="#EEEEEE"/>
<stop offset="0.96" stop-color="#D9D9D9"/>
<stop offset="1" stop-color="#CCCCCC"/>
</radialGradient>
<radialGradient id="paint2_radial_9182_34324" cx="0" cy="0" r="1" gradientUnits="userSpaceOnUse" gradientTransform="translate(37.016 28.5308) scale(2.96732 2.96206)">
<stop stop-color="#9E2424"/>
<stop offset="0.23" stop-color="#952424"/>
<stop offset="0.6" stop-color="#7C2525"/>
<stop offset="1" stop-color="#5B2828"/>
</radialGradient>
<radialGradient id="paint3_radial_9182_34324" cx="0" cy="0" r="1" gradientUnits="userSpaceOnUse" gradientTransform="translate(25.008 28.5314) scale(4.41896 4.41113)">
<stop offset="0.75" stop-color="white"/>
<stop offset="0.82" stop-color="#FAFAFA"/>
<stop offset="0.89" stop-color="#EEEEEE"/>
<stop offset="0.96" stop-color="#D9D9D9"/>
<stop offset="1" stop-color="#CCCCCC"/>
</radialGradient>
<radialGradient id="paint4_radial_9182_34324" cx="0" cy="0" r="1" gradientUnits="userSpaceOnUse" gradientTransform="translate(25.0077 28.5308) scale(2.96732 2.96206)">
<stop stop-color="#9E2424"/>
<stop offset="0.23" stop-color="#952424"/>
<stop offset="0.6" stop-color="#7C2525"/>
<stop offset="1" stop-color="#5B2828"/>
</radialGradient>
<linearGradient id="paint5_linear_9182_34324" x1="36.3759" y1="26.1655" x2="36.3759" y2="21.5224" gradientUnits="userSpaceOnUse">
<stop stop-color="#5B2828"/>
<stop offset="0.4" stop-color="#7C2525"/>
<stop offset="0.77" stop-color="#952424"/>
<stop offset="1" stop-color="#9E2424"/>
</linearGradient>
<linearGradient id="paint6_linear_9182_34324" x1="25.6465" y1="26.1655" x2="25.6465" y2="21.5224" gradientUnits="userSpaceOnUse">
<stop stop-color="#5B2828"/>
<stop offset="0.4" stop-color="#7C2525"/>
<stop offset="0.77" stop-color="#952424"/>
<stop offset="1" stop-color="#9E2424"/>
</linearGradient>
<radialGradient id="paint7_radial_9182_34324" cx="0" cy="0" r="1" gradientUnits="userSpaceOnUse" gradientTransform="translate(31.0113 38.0109) scale(4.05601 4.04882)">
<stop stop-color="#7A3535"/>
<stop offset="1" stop-color="#5B2121"/>
</radialGradient>
</defs>
</svg>
