<svg width="181" height="180" viewBox="0 0 181 180" fill="none" xmlns="http://www.w3.org/2000/svg">
<g filter="url(#filter0_d_9140_56100)">
<rect x="40.5" y="30" width="100" height="100" rx="50" fill="url(#paint0_linear_9140_56100)" shape-rendering="crispEdges"/>
<rect x="41.5" y="31" width="98" height="98" rx="49" stroke="white" stroke-opacity="0.14" stroke-width="2" shape-rendering="crispEdges"/>
<path d="M83.999 86.5251L87.624 90.1501L97.2907 80.4834" stroke="white" stroke-width="5" stroke-linecap="round" stroke-linejoin="round"/>
<path d="M85.6663 65.4997H95.333C100.166 65.4997 100.166 63.083 100.166 60.6663C100.166 55.833 97.7497 55.833 95.333 55.833H85.6663C83.2497 55.833 80.833 55.833 80.833 60.6663C80.833 65.4997 83.2497 65.4997 85.6663 65.4997Z" stroke="white" stroke-width="5" stroke-miterlimit="10" stroke-linecap="round" stroke-linejoin="round"/>
<path d="M100.167 60.7148C108.214 61.1498 112.25 64.1223 112.25 75.1665V89.6665C112.25 99.3332 109.833 104.167 97.75 104.167H83.25C71.1667 104.167 68.75 99.3332 68.75 89.6665V75.1665C68.75 64.1465 72.7858 61.1498 80.8333 60.7148" stroke="white" stroke-width="5" stroke-miterlimit="10" stroke-linecap="round" stroke-linejoin="round"/>
</g>
<defs>
<filter id="filter0_d_9140_56100" x="0.5" y="0" width="180" height="180" filterUnits="userSpaceOnUse" color-interpolation-filters="sRGB">
<feFlood flood-opacity="0" result="BackgroundImageFix"/>
<feColorMatrix in="SourceAlpha" type="matrix" values="0 0 0 0 0 0 0 0 0 0 0 0 0 0 0 0 0 0 127 0" result="hardAlpha"/>
<feOffset dy="10"/>
<feGaussianBlur stdDeviation="20"/>
<feComposite in2="hardAlpha" operator="out"/>
<feColorMatrix type="matrix" values="0 0 0 0 0.088 0 0 0 0 0.8 0 0 0 0 0.325333 0 0 0 0.3 0"/>
<feBlend mode="normal" in2="BackgroundImageFix" result="effect1_dropShadow_9140_56100"/>
<feBlend mode="normal" in="SourceGraphic" in2="effect1_dropShadow_9140_56100" result="shape"/>
</filter>
<linearGradient id="paint0_linear_9140_56100" x1="90.5" y1="13" x2="90.5" y2="138.5" gradientUnits="userSpaceOnUse">
<stop stop-color="#73CF11"/>
<stop offset="1" stop-color="#00B67A"/>
</linearGradient>
</defs>
</svg>
