<svg width="181" height="180" viewBox="0 0 181 180" fill="none" xmlns="http://www.w3.org/2000/svg">
<g filter="url(#filter0_d_9140_56226)">
<rect x="40.5" y="30" width="100" height="100" rx="50" fill="url(#paint0_linear_9140_56226)" shape-rendering="crispEdges"/>
<rect x="41.5" y="31" width="98" height="98" rx="49" stroke="white" stroke-opacity="0.14" stroke-width="2" shape-rendering="crispEdges"/>
<path d="M101.23 58.4922C96.8555 58.4922 92.9405 60.6189 90.4997 63.8814C88.0588 60.6189 84.1438 58.4922 79.7697 58.4922C72.3505 58.4922 66.333 64.5339 66.333 72.0014C66.333 74.8772 66.7922 77.5355 67.5897 80.0005C71.408 92.0839 83.1772 99.3097 89.0013 101.291C89.823 101.581 91.1763 101.581 91.998 101.291C97.8222 99.3097 109.591 92.0839 113.41 80.0005C114.207 77.5355 114.666 74.8772 114.666 72.0014C114.666 64.5339 108.649 58.4922 101.23 58.4922Z" fill="white"/>
</g>
<defs>
<filter id="filter0_d_9140_56226" x="0.5" y="0" width="180" height="180" filterUnits="userSpaceOnUse" color-interpolation-filters="sRGB">
<feFlood flood-opacity="0" result="BackgroundImageFix"/>
<feColorMatrix in="SourceAlpha" type="matrix" values="0 0 0 0 0 0 0 0 0 0 0 0 0 0 0 0 0 0 127 0" result="hardAlpha"/>
<feOffset dy="10"/>
<feGaussianBlur stdDeviation="20"/>
<feComposite in2="hardAlpha" operator="out"/>
<feColorMatrix type="matrix" values="0 0 0 0 0.952941 0 0 0 0 0.776471 0 0 0 0 0.243137 0 0 0 0.3 0"/>
<feBlend mode="normal" in2="BackgroundImageFix" result="effect1_dropShadow_9140_56226"/>
<feBlend mode="normal" in="SourceGraphic" in2="effect1_dropShadow_9140_56226" result="shape"/>
</filter>
<linearGradient id="paint0_linear_9140_56226" x1="90.5" y1="30" x2="90.5" y2="250.556" gradientUnits="userSpaceOnUse">
<stop stop-color="#F3C63E"/>
<stop offset="1" stop-color="#E52E30"/>
</linearGradient>
</defs>
</svg>
